<?xml version="1.0" encoding="UTF-8"?>
<svg id="Layer_1" data-name="Layer 1" xmlns="http://www.w3.org/2000/svg" viewBox="0 0 120.07 123.1">
  <defs>
    <style>
      .cls-1 {
        fill: #e73030;
      }

      .cls-1, .cls-2 {
        stroke-width: 0px;
      }

      .cls-2 {
        fill: #010101;
      }
    </style>
  </defs>
  <g id="CUSTOM-Group">
    <path class="cls-1" d="M67.99.55L20.64,34.13c-.79.56-1.26,1.47-1.26,2.44v67.37c0,1.65,1.34,2.99,2.99,2.99h94.71c1.65,0,2.99-1.34,2.99-2.99V36.57c0-.97-.47-1.88-1.26-2.44L71.46.55c-1.04-.74-2.43-.74-3.46,0Z"/>
    <path class="cls-2" d="M108.19,42.27L57.72,6.48c-1.59-1.13-3.72-1.13-5.31,0L1.93,42.27c-1.21.86-1.93,2.26-1.93,3.74v72.5c0,2.53,2.05,4.59,4.59,4.59h100.95c2.53,0,4.59-2.05,4.59-4.59V46.01c0-1.49-.72-2.88-1.93-3.74ZM100.95,113.93H9.18V48.39L55.06,15.85l45.89,32.54v65.54ZM42.44,66.09c0,5.34,3.33,9.91,8.03,11.75v11.19c0,2.53,2.05,4.59,4.59,4.59s4.59-2.05,4.59-4.59v-11.19c4.7-1.84,8.03-6.41,8.03-11.75,0-6.96-5.66-12.62-12.62-12.62s-12.62,5.66-12.62,12.62ZM58.5,66.09c0,1.9-1.54,3.44-3.44,3.44s-3.44-1.54-3.44-3.44,1.54-3.44,3.44-3.44,3.44,1.54,3.44,3.44Z"/>
  </g>
</svg>